# xmcd
#
# Track frame offsets: 
#        150
#        23003
#        38361
#        60460
#        81303
#        98358
#        114559
#        136289
#        163228
#        181785
#        199094
#
# Disc length: 2870 seconds
#
# Revision: 0
# Processed by: cddbd v1.5.2PL0 Copyright (c) Steve Scherf et al.
# Submitted via: ExactAudioCopy v1.3
#
DISCID=7f0b340b
DTITLE=Robin Rogers - Back In The Fire
DYEAR=2010
DGENRE=Modern Electric Blues
TTITLE0=Baby Bye-Bye
TTITLE1=Second Time Around
TTITLE2=You Don't Know
TTITLE3=Need Your Love So Bad
TTITLE4=The Plan
TTITLE5=I Know I Done Wrong
TTITLE6=Ocean of Tears
TTITLE7=Don't Walk Away Run
TTITLE8=Hittin' On Nothin'
TTITLE9=Yesterday's Blues
TTITLE10=Robin Rogers  What We Are Wort
EXTD=
EXTT0=
EXTT1=
EXTT2=
EXTT3=
EXTT4=
EXTT5=
EXTT6=
EXTT7=
EXTT8=
EXTT9=
EXTT10=
PLAYORDER=
